{"title":"Lady Gaga - X3 Live (Dick Clark's New Year's Rockin' Eve With","uid":6980310,"size":647853076,"categoryP":"video","categoryS":"other","magnet":"?xt=urn:btih:3b26b80d345ec64642a8d046ec78bef7023c51ef&amp;dn=Lady+Gaga+-+X3+Live+%28Dick+Clark%5C%27s+New+Year%5C%27s+Rockin%5C%27+Eve+With&amp;tr=udp%3A%2F%2Ftracker.openbittorrent.com%3A80&amp;tr=udp%3A%2F%2Fopen.demonii.com%3A1337&amp;tr=udp%3A%2F%2Ftracker.coppersurfer.tk%3A6969&amp;tr=udp%3A%2F%2Fexodus.desync.com%3A6969","seeders":0,"leechers":0,"uploader":null,"files":1,"time":1327381340,"description":"Format                           : MPEG-TS\nFile size                        : 618 MiB\nDuration                         : 6mn 51s\nOverall bit rate mode            : Variable\nOverall bit rate                 : 12.6 Mbps\n\nVideo\nID                               : 1984 (0x7C0)\nMenu ID                          : 1 (0x1)\nFormat                           : MPEG Video\nFormat_Commercial_IfAny          : HDV 720p\nFormat version                   : Version 2\nFormat profile                   : Main@High 1440\nFormat settings, BVOP            : No\nFormat settings, Matrix          : Default\nCodec ID                         : 2\nDuration                         : 6mn 51s\nBit rate mode                    : Variable\nBit rate                         : 11.6 Mbps\nMaximum bit rate                 : 15.0 Mbps\nWidth                            : 1 280 pixels\nHeight                           : 720 pixels\nDisplay aspect ratio             : 16:9\nFrame rate                       : 59.940 fps\nColor space                      : YUV\nChroma subsampling               : 4:2:0\nBit depth                        : 8 bits\nScan type                        : Progressive\nCompression mode                 : Lossy\nBits/(Pixel*Frame)               : 0.210\nStream size                      : 568 MiB (92%)\n\nAudio\nID                               : 1985 (0x7C1)\nMenu ID                          : 1 (0x1)\nFormat                           : AC-3\nFormat/Info                      : Audio Coding 3\nMode extension                   : CM (complete main)\nCodec ID                         : 129\nDuration                         : 6mn 51s\nBit rate mode                    : Constant\nBit rate                         : 384 Kbps\nChannel(s)                       : 6 channels\nChannel positions                : Front: L C R, Side: L R, LFE\nSampling rate                    : 48.0 KHz\nBit depth                        : 16 bits\nCompression mode                 : Lossy\nDelay relative to video          : -14ms\nStream size                      : 18.8 MiB (3%)\nLanguage                         : English\n","torrent":{"xt":"urn:btih:3b26b80d345ec64642a8d046ec78bef7023c51ef","amp;dn":"Lady+Gaga+-+X3+Live+%28Dick+Clark%5C%27s+New+Year%5C%27s+Rockin%5C%27+Eve+With","amp;tr":["udp%3A%2F%2Ftracker.openbittorrent.com%3A80","udp%3A%2F%2Fopen.demonii.com%3A1337","udp%3A%2F%2Ftracker.coppersurfer.tk%3A6969","udp%3A%2F%2Fexodus.desync.com%3A6969"],"infoHash":"3b26b80d345ec64642a8d046ec78bef7023c51ef","infoHashBuffer":{"type":"Buffer","data":[59,38,184,13,52,94,198,70,66,168,208,70,236,120,190,247,2,60,81,239]},"announce":[],"urlList":[]}}